# xmcd
#
# Track frame offsets: 
#        150
#        64693
#        117908
#
# Disc length: 3610 seconds
#
# Revision: 3
# Processed by: cddbd v1.5.2PL0 Copyright (c) Steve Scherf et al.
# Submitted via: ExactAudioCopy v0.99pb5
#
DISCID=210e1803
DTITLE=Szilard Mezei Ensemble - Desert
DYEAR=2008
DGENRE=Avant-garde
TTITLE0=Warsawa Sketch
TTITLE1=Waterlight (north)
TTITLE2=Desert
EXTD=YEAR: 2008
EXTT0=
EXTT1=
EXTT2=
PLAYORDER=
